# xmcd CD database file
# Copyright (C) 1993-1996 Ti Kan
#
# Track frame offsets:
#  150
#  19507
#  39099
#  61001
#  80698
#  95632
#  111642
#  126714
#  143553
#  165151
#
# Disc length: 2414 seconds
#
# Revision: 1
# Processed by: cddbd v1.5.2PL0 Copyright (c) Steve Scherf et al.
# Submitted via: Advanced CD Ripper Pro 2.0
#
DISCID=7c096c0a
DTITLE=Montgomery Gentry - Country
DYEAR=2012
DGENRE=Country
TTITLE0=Something To Be Proud Of
TTITLE1=Daddy Won't Sell The Farm
TTITLE2=Hell Yeah
TTITLE3=She Couldn't Change Me
TTITLE4=Lucky Man
TTITLE5=One In Every Crowd
TTITLE6=Lonely and Gone
TTITLE7=You Do Your Thing
TTITLE8=My Town
TTITLE9=All Night Long
EXTD=
EXTT0=
EXTT1=
EXTT2=
EXTT3=
EXTT4=
EXTT5=
EXTT6=
EXTT7=
EXTT8=
EXTT9=
PLAYORDER=
